<?xml version="1.0" encoding="UTF-8" standalone="no"?>
<svg width="1920px" height="630px" viewBox="0 0 1920 630" version="1.1" xmlns="http://www.w3.org/2000/svg" xmlns:xlink="http://www.w3.org/1999/xlink" xmlns:sketch="http://www.bohemiancoding.com/sketch/ns">
    <!-- Generator: Sketch 3.4.1 (15681) - http://www.bohemiancoding.com/sketch -->
    <title>Page 1 + Page 1 Copy 2 + Page 1 Copy 5 + Page 1 Copy 6 + Page 1 Copy 7 + Page 1 Copy 8 + Oval 1 + Oval 1 + Page 1</title>
    <desc>Created with Sketch.</desc>
    <defs>
        <path id="path-1" d="M-1.42108547e-13,0.0827219096 L73.3621193,0.0827219096 L73.3621193,79.0374567 L-1.42108547e-13,79.0374567"></path>
        <path id="path-3" d="M-1.0658141e-13,0.0621114608 L55.0836945,0.0621114608 L55.0836945,59.3450021 L-1.0658141e-13,59.3450021"></path>
        <path id="path-5" d="M-1.27897692e-13,0.0762693924 L67.6396893,0.0762693924 L67.6396893,72.8723361 L-1.27897692e-13,72.8723361"></path>
        <path id="path-7" d="M-1.27897692e-13,0.0762693924 L67.6396893,0.0762693924 L67.6396893,72.8723361 L-1.27897692e-13,72.8723361"></path>
        <path id="path-9" d="M-9.9475983e-14,0.0575586624 L51.0460346,0.0575586624 L51.0460346,54.9949863 L-9.9475983e-14,54.9949863"></path>
        <path id="path-11" d="M-9.9475983e-14,0.0575586624 L51.0460346,0.0575586624 L51.0460346,54.9949863 L-9.9475983e-14,54.9949863"></path>
    </defs>
    <g id="Page-1" stroke="none" stroke-width="1" fill="none" fill-rule="evenodd" sketch:type="MSPage">
        <g id="Home-page-var2" sketch:type="MSArtboardGroup" transform="translate(0.000000, -447.000000)">
            <g id="Page-1-+-Page-1-Copy-2-+-Page-1-Copy-5-+-Page-1-Copy-6-+-Page-1-Copy-7-+-Page-1-Copy-8-+-Oval-1-+-Oval-1-+-Page-1" sketch:type="MSLayerGroup" transform="translate(-158.000000, 442.000000)">
                <g id="Page-1-+-Page-1-Copy-2-+-Page-1-Copy-5-+-Page-1-Copy-6-+-Page-1-Copy-7-+-Page-1-Copy-8-+-Oval-1-+-Oval-1" transform="translate(0.000000, 43.000000)">
                    <g id="Page-1-+-Page-1-Copy-2-+-Page-1-Copy-5" transform="translate(1368.000000, 0.000000)">
                        <g id="Page-1" transform="translate(53.332053, 53.720193) rotate(-34.000000) translate(-53.332053, -53.720193) translate(16.309244, 14.201465)">
                            <mask id="mask-2" sketch:name="Clip 2" fill="white">
                                <use xlink:href="#path-1"></use>
                            </mask>
                            <g id="Clip-2"></g>
                            <path d="M39.2996165,77.1785908 C28.9920868,63.374491 43.4233878,40.636425 43.4233878,40.636425 C46.6775977,49.9887549 54.2910061,48.0718886 54.2910061,48.0718886 C47.9154886,37.8466999 61.5740571,18.8377756 61.5740571,18.8377756 C62.0885792,21.4107122 66.7382642,25.0029349 66.7382642,25.0029349 C63.1688857,16.3561183 73.3606005,0.0836727361 73.3606005,0.0836727361 C73.3606005,0.0836727361 58.1679587,11.7997574 49.2293236,9.07278691 C49.2293236,9.07278691 53.2486716,13.3648179 55.8554571,13.6310494 C55.8554571,13.6310494 38.2686737,29.0667675 27.4921884,23.6850893 C27.4921884,23.6850893 26.315053,31.4571455 35.9219972,33.8075887 C35.9219972,33.8075887 14.7069785,50.3709872 0.000379721115,41.4122994 C0.000379721115,41.4122994 3.45394326,50.6258087 16.2163699,59.306855 L1.41484087,75.6211369 L5.16648549,79.0384076 L19.9300424,62.7697653 C29.6983681,74.3888657 39.2996165,77.1785908 39.2996165,77.1785908" id="Fill-1" fill="#66998C" sketch:type="MSShapeGroup" mask="url(#mask-2)"></path>
                        </g>
                        <g id="Page-1-Copy-2" transform="translate(101.638610, 78.460707) rotate(-34.000000) translate(-101.638610, -78.460707) translate(73.840162, 48.788206)">
                            <mask id="mask-4" sketch:name="Clip 2" fill="white">
                                <use xlink:href="#path-3"></use>
                            </mask>
                            <g id="Clip-2"></g>
                            <path d="M29.5079816,57.949279 C21.7686085,47.5845182 32.6043011,30.5117197 32.6043011,30.5117197 C35.0477134,37.5338844 40.7642149,36.0946119 40.7642149,36.0946119 C35.9771795,28.4170642 46.2326686,14.1442789 46.2326686,14.1442789 C46.6189958,16.0761595 50.1101957,18.7733675 50.1101957,18.7733675 C47.4301402,12.280935 55.0825541,0.0628253856 55.0825541,0.0628253856 C55.0825541,0.0628253856 43.6752114,8.85980723 36.963668,6.81227079 C36.963668,6.81227079 39.9815816,10.0349275 41.9388775,10.2348265 C41.9388775,10.2348265 28.7339018,21.8246823 20.642415,17.7838677 C20.642415,17.7838677 19.7585669,23.6194893 26.9719078,25.3843115 C26.9719078,25.3843115 11.0426841,37.8208822 0.000285112291,31.0942823 C0.000285112291,31.0942823 2.5933814,38.012214 12.1760055,44.5303478 L1.06232839,56.7798701 L3.87923783,59.345716 L14.9644037,47.130462 C22.2989174,55.8546235 29.5079816,57.949279 29.5079816,57.949279" id="Fill-1" fill="#66998C" sketch:type="MSShapeGroup" mask="url(#mask-4)"></path>
                        </g>
                        <g id="Page-1-Copy-5" transform="translate(174.720194, 80.622115) rotate(-30.000000) translate(-174.720194, -80.622115) translate(140.585258, 44.185947)">
                            <mask id="mask-6" sketch:name="Clip 2" fill="white">
                                <use xlink:href="#path-5"></use>
                            </mask>
                            <g id="Clip-2"></g>
                            <path d="M36.2341475,71.1584664 C26.7306311,58.4311212 40.0362542,37.4666815 40.0362542,37.4666815 C43.0366276,46.0895062 50.0561709,44.3221602 50.0561709,44.3221602 C44.1779598,34.894562 56.7711256,17.3683816 56.7711256,17.3683816 C57.2455137,19.7406227 61.5325116,23.052643 61.5325116,23.052643 C58.2415536,15.0802999 67.6382889,0.0771460521 67.6382889,0.0771460521 C67.6382889,0.0771460521 53.6307114,10.8793467 45.3893124,8.36508669 C45.3893124,8.36508669 49.0951412,12.3223285 51.4985908,12.5677932 C51.4985908,12.5677932 35.2836208,26.7994865 25.3477285,21.8375927 C25.3477285,21.8375927 24.2624126,29.0034089 33.1199909,31.1705117 C33.1199909,31.1705117 13.5597971,46.4419233 0.000350101912,38.1820358 C0.000350101912,38.1820358 3.18452699,46.6768681 14.9514522,54.680771 L1.30447972,69.7224979 L4.76348661,72.8732128 L18.3754489,57.8735656 C27.3818206,68.5863469 36.2341475,71.1584664 36.2341475,71.1584664" id="Fill-1" fill="#66998C" sketch:type="MSShapeGroup" mask="url(#mask-6)"></path>
                        </g>
                    </g>
                    <g id="Page-1-Copy-6-+-Page-1-Copy-7-+-Page-1-Copy-8" transform="translate(668.000000, 4.000000)">
                        <g id="Page-1-Copy-6" transform="translate(141.927697, 49.814119) rotate(-51.000000) translate(-141.927697, -49.814119) translate(107.792761, 13.377951)">
                            <mask id="mask-8" sketch:name="Clip 2" fill="white">
                                <use xlink:href="#path-7"></use>
                            </mask>
                            <g id="Clip-2"></g>
                            <path d="M36.2341475,71.1584664 C26.7306311,58.4311212 40.0362542,37.4666815 40.0362542,37.4666815 C43.0366276,46.0895062 50.0561709,44.3221602 50.0561709,44.3221602 C44.1779598,34.894562 56.7711256,17.3683816 56.7711256,17.3683816 C57.2455137,19.7406227 61.5325116,23.052643 61.5325116,23.052643 C58.2415536,15.0802999 67.6382889,0.0771460521 67.6382889,0.0771460521 C67.6382889,0.0771460521 53.6307114,10.8793467 45.3893124,8.36508669 C45.3893124,8.36508669 49.0951412,12.3223285 51.4985908,12.5677932 C51.4985908,12.5677932 35.2836208,26.7994865 25.3477285,21.8375927 C25.3477285,21.8375927 24.2624126,29.0034089 33.1199909,31.1705117 C33.1199909,31.1705117 13.5597971,46.4419233 0.000350101912,38.1820358 C0.000350101912,38.1820358 3.18452699,46.6768681 14.9514522,54.680771 L1.30447972,69.7224979 L4.76348661,72.8732128 L18.3754489,57.8735656 C27.3818206,68.5863469 36.2341475,71.1584664 36.2341475,71.1584664" id="Fill-1" fill="#66998C" sketch:type="MSShapeGroup" mask="url(#mask-8)"></path>
                        </g>
                        <g id="Page-1-Copy-7" transform="translate(179.581368, 67.324642) rotate(-51.000000) translate(-179.581368, -67.324642) translate(153.820559, 39.827149)">
                            <mask id="mask-10" sketch:name="Clip 2" fill="white">
                                <use xlink:href="#path-9"></use>
                            </mask>
                            <g id="Clip-2"></g>
                            <path d="M27.3450331,53.7015704 C20.1729596,44.0965513 30.2143909,28.2751967 30.2143909,28.2751967 C32.4787,34.7826335 37.7761793,33.4488604 37.7761793,33.4488604 C33.3400358,26.3340804 42.8437929,13.1074968 42.8437929,13.1074968 C43.2018021,14.8977696 46.4370955,17.3972711 46.4370955,17.3972711 C43.9534893,11.3807369 51.0449777,0.0582202562 51.0449777,0.0582202562 C51.0449777,0.0582202562 40.4737984,8.21037931 34.2542143,6.31292823 C34.2542143,6.31292823 37.0509134,9.29936274 38.8647386,9.48460901 C38.8647386,9.48460901 26.6276936,20.2249231 19.1293165,16.4803021 C19.1293165,16.4803021 18.3102549,21.8881699 24.9948546,23.5236299 C24.9948546,23.5236299 10.2332503,35.0485942 0.000264213429,28.8150572 C0.000264213429,28.8150572 2.40328535,35.2259014 11.2834987,41.2662529 L0.984459238,52.6178797 L3.59488792,54.9956479 L13.8675061,43.6757776 C20.6643965,51.7604541 27.3450331,53.7015704 27.3450331,53.7015704" id="Fill-1" fill="#66998C" sketch:type="MSShapeGroup" mask="url(#mask-10)"></path>
                        </g>
                        <g id="Page-1-Copy-8" transform="translate(37.581368, 87.324642) rotate(-51.000000) translate(-37.581368, -87.324642) translate(11.820559, 59.827149)">
                            <mask id="mask-12" sketch:name="Clip 2" fill="white">
                                <use xlink:href="#path-11"></use>
                            </mask>
                            <g id="Clip-2"></g>
                            <path d="M27.3450331,53.7015704 C20.1729596,44.0965513 30.2143909,28.2751967 30.2143909,28.2751967 C32.4787,34.7826335 37.7761793,33.4488604 37.7761793,33.4488604 C33.3400358,26.3340804 42.8437929,13.1074968 42.8437929,13.1074968 C43.2018021,14.8977696 46.4370955,17.3972711 46.4370955,17.3972711 C43.9534893,11.3807369 51.0449777,0.0582202562 51.0449777,0.0582202562 C51.0449777,0.0582202562 40.4737984,8.21037931 34.2542143,6.31292823 C34.2542143,6.31292823 37.0509134,9.29936274 38.8647386,9.48460901 C38.8647386,9.48460901 26.6276936,20.2249231 19.1293165,16.4803021 C19.1293165,16.4803021 18.3102549,21.8881699 24.9948546,23.5236299 C24.9948546,23.5236299 10.2332503,35.0485942 0.000264213429,28.8150572 C0.000264213429,28.8150572 2.40328535,35.2259014 11.2834987,41.2662529 L0.984459238,52.6178797 L3.59488792,54.9956479 L13.8675061,43.6757776 C20.6643965,51.7604541 27.3450331,53.7015704 27.3450331,53.7015704" id="Fill-1" fill="#66998C" sketch:type="MSShapeGroup" mask="url(#mask-12)"></path>
                        </g>
                    </g>
                    <g id="Oval-1-+-Oval-1" transform="translate(0.000000, 82.000000)" fill="#FAF9F2" sketch:type="MSShapeGroup">
                        <path d="M1117.5,518 L2235,518 C2235,231.9165 1734.67821,0 1117.5,0 C500.321792,0 0,231.9165 0,518 L1117.5,518 Z" id="Oval-1"></path>
                    </g>
                </g>
                <g id="Page-1" transform="translate(1263.659582, 82.241689) rotate(12.000000) translate(-1263.659582, -82.241689) translate(1239.659582, 4.241689)" sketch:type="MSShapeGroup">
                    <path d="M34.9052789,115.945964 L19.7745947,105.429898 C20.1408053,110.221702 20.4941211,114.985013 20.8448579,119.631767 L35.9626474,130.134882 C35.6196474,125.563243 35.2689105,120.802521 34.9052789,115.945964" id="Fill-1" fill="#EFF0F3"></path>
                    <path d="M33.2379895,93.9777475 L18.0944105,83.4513213 C18.4503053,88.0644033 18.8087789,92.7733213 19.1724105,97.4900098 L34.3082526,108.013846 C33.9523579,103.354141 33.5964632,98.6478131 33.2379895,93.9777475" id="Fill-3" fill="#EFF0F3"></path>
                    <path d="M30.4852211,43.029482 L13.1701684,30.9955803 C13.0979579,32.8501377 13.1495368,35.6242033 13.4796421,39.7865967 C13.5853789,41.1645639 13.7788,42.8740721 14.0186421,44.8011541 L30.7353789,56.412859 C30.6502737,51.6832197 30.6141684,46.8318426 30.4852211,43.029482" id="Fill-5" fill="#EFF0F3"></path>
                    <path d="M31.1513632,67.0439279 C31.0817316,66.1244197 31.0172579,65.1297967 30.9682579,64.0963213 L15.1257842,53.0829443 C15.8272579,58.2321902 16.5467842,63.6223213 16.8743105,67.7795344 C16.8717316,67.8002557 16.8743105,67.8235672 16.8768895,67.8442885 L32.0411,78.3733049 C31.7342053,74.4906492 31.4350474,70.7012393 31.1513632,67.0439279" id="Fill-7" fill="#EFF0F3"></path>
                    <path d="M30.2899947,39.2781475 C29.4286263,28.3580164 27.9973105,27.1250984 27.9741,26.8401803 C27.9741,26.8401803 26.1559421,24.8897869 20.8097842,25.1306721 C15.4662053,25.3741475 13.6661,27.2235246 13.6661,27.2235246 C13.6789947,27.3996557 13.2715211,27.9953934 13.1683632,30.9948033 L30.4834158,43.0312951 C30.4395737,41.6144754 30.3802579,40.3427049 30.2899947,39.2781475" id="Fill-9" fill="#E30137"></path>
                    <path d="M32.0403263,78.3735639 L16.8761158,67.8445475 C17.2655368,72.8306131 17.6730105,78.0782852 18.0933789,83.4528754 L33.2395368,93.9767115 C32.8398,88.6979574 32.4297474,83.4606459 32.0403263,78.3735639" id="Fill-11" fill="#E30137"></path>
                    <path d="M35.9616158,130.133846 L20.8438263,119.630731 C21.2435632,125.010502 21.6355632,130.242633 21.9888789,135.195026 L37.0679842,145.67483 C36.7353,140.872666 36.3561947,135.637944 35.9616158,130.133846" id="Fill-13" fill="#E30137"></path>
                    <path d="M30.7346053,56.412859 L14.0178684,44.7985639 C14.3350789,47.3006623 14.7245,50.1524328 15.1268158,53.0844984 L30.9692895,64.0978754 C30.8506579,61.7149246 30.7836053,59.0884984 30.7346053,56.412859" id="Fill-15" fill="#E30137"></path>
                    <path d="M34.3095421,108.013587 L19.1737,97.492341 C19.3774368,100.144669 19.5785947,102.791816 19.7745947,105.431193 L34.9052789,115.947259 C34.7092789,113.326013 34.5132789,110.671095 34.3095421,108.013587" id="Fill-17" fill="#E30137"></path>
                    <path d="M18.2981474,24.622482 C17.1943579,25.5523508 13.4394105,26.4252361 15.7836737,26.5081213 C18.1279368,26.5858262 19.0847263,26.7593672 19.0847263,26.7593672 C19.0847263,26.7593672 22.0144105,28.6242852 23.4612,27.9145803 C24.9079895,27.2022852 27.4895158,28.8522197 27.7886737,29.8028098 C28.0904105,30.7534 30.6538842,32.2815967 29.8879368,29.2925475 C29.1245684,26.298318 29.9833579,24.780482 26.8705684,24.7545803 C23.7526211,24.7286787 20.7043053,24.0889082 20.3226211,23.627859 C19.9435158,23.1668098 18.8165158,24.1847443 18.2981474,24.622482" id="Fill-19" fill="#FFFFFF"></path>
                    <path d="M31.2671579,128.462672 C38.6042632,136.65277 47.334,129.05841 47.334,129.05841 L45.2914737,151.509951 C45.2914737,151.509951 12.0565789,165.693689 4.54747351e-13,143.641033 C4.54747351e-13,143.641033 23.9223158,120.275164 31.2671579,128.462672 Z" id="Fill-21" fill="#FAF9F2"></path>
                    <path d="M30.6402158,11.7325311 C30.3101105,17.5863016 25.3198474,22.0621049 19.4914263,21.7305639 C13.6655842,21.399023 9.20916316,16.3844656 9.53926842,10.5306951 C9.86937368,4.67951475 14.8596368,0.203711475 20.6854789,0.535252459 C26.5164789,0.866793443 30.9703211,5.87876066 30.6402158,11.7325311" id="Fill-23" fill="#FFDD48"></path>
                    <path d="M22.7143368,3.04123607 C22.9180737,4.35962951 21.1334421,5.73500656 18.7195474,6.11576066 C16.3108105,6.49392459 14.1909158,5.73500656 13.9846,4.41661311 C13.7782842,3.09821967 15.5654947,1.72284262 17.9768105,1.33949836 C20.3855474,0.961334426 22.5080211,1.72284262 22.7143368,3.04123607" id="Fill-25" fill="#FFFFFF"></path>
                </g>
            </g>
        </g>
    </g>
</svg>