<?xml version="1.0" encoding="UTF-8" standalone="no"?>
<svg width="1920px" height="592px" viewBox="0 0 1920 592" version="1.1" xmlns="http://www.w3.org/2000/svg" xmlns:xlink="http://www.w3.org/1999/xlink" xmlns:sketch="http://www.bohemiancoding.com/sketch/ns">
    <!-- Generator: Sketch 3.4.3 (16044) - http://www.bohemiancoding.com/sketch -->
    <title>Group</title>
    <desc>Created with Sketch.</desc>
    <defs>
        <path id="path-1" d="M-1.42108547e-13,0.0827219096 L73.3621193,0.0827219096 L73.3621193,79.0374567 L-1.42108547e-13,79.0374567"></path>
        <path id="path-3" d="M-1.0658141e-13,0.0621114608 L55.0836945,0.0621114608 L55.0836945,59.3450021 L-1.0658141e-13,59.3450021"></path>
        <path id="path-5" d="M-1.27897692e-13,0.0762693924 L67.6396893,0.0762693924 L67.6396893,72.8723361 L-1.27897692e-13,72.8723361"></path>
        <path id="path-7" d="M-1.27897692e-13,0.0762693924 L67.6396893,0.0762693924 L67.6396893,72.8723361 L-1.27897692e-13,72.8723361"></path>
        <path id="path-9" d="M-9.9475983e-14,0.0575586624 L51.0460346,0.0575586624 L51.0460346,54.9949863 L-9.9475983e-14,54.9949863"></path>
        <path id="path-11" d="M-9.9475983e-14,0.0575586624 L51.0460346,0.0575586624 L51.0460346,54.9949863 L-9.9475983e-14,54.9949863"></path>
    </defs>
    <g id="Page-1" stroke="none" stroke-width="1" fill="none" fill-rule="evenodd" sketch:type="MSPage">
        <g id="Home-page-var2" sketch:type="MSArtboardGroup" transform="translate(0.000000, -485.000000)">
            <g id="Group" sketch:type="MSLayerGroup" transform="translate(-158.000000, -1.000000)">
                <g transform="translate(0.000000, 486.000000)">
                    <g id="Page-1" transform="translate(1421.332053, 53.720193) rotate(-34.000000) translate(-1421.332053, -53.720193) translate(1384.309244, 14.201465)">
                        <mask id="mask-2" sketch:name="Clip 2" fill="white">
                            <use xlink:href="#path-1"></use>
                        </mask>
                        <g id="Clip-2"></g>
                        <path d="M39.2996165,77.1785908 C28.9920868,63.374491 43.4233878,40.636425 43.4233878,40.636425 C46.6775977,49.9887549 54.2910061,48.0718886 54.2910061,48.0718886 C47.9154886,37.8466999 61.5740571,18.8377756 61.5740571,18.8377756 C62.0885792,21.4107122 66.7382642,25.0029349 66.7382642,25.0029349 C63.1688857,16.3561183 73.3606005,0.0836727361 73.3606005,0.0836727361 C73.3606005,0.0836727361 58.1679587,11.7997574 49.2293236,9.07278691 C49.2293236,9.07278691 53.2486716,13.3648179 55.8554571,13.6310494 C55.8554571,13.6310494 38.2686737,29.0667675 27.4921884,23.6850893 C27.4921884,23.6850893 26.315053,31.4571455 35.9219972,33.8075887 C35.9219972,33.8075887 14.7069785,50.3709872 0.000379721115,41.4122994 C0.000379721115,41.4122994 3.45394326,50.6258087 16.2163699,59.306855 L1.41484087,75.6211369 L5.16648549,79.0384076 L19.9300424,62.7697653 C29.6983681,74.3888657 39.2996165,77.1785908 39.2996165,77.1785908" id="Fill-1" fill="#66998C" sketch:type="MSShapeGroup" mask="url(#mask-2)"></path>
                    </g>
                    <g id="Page-1-Copy-2" transform="translate(1469.638610, 78.460707) rotate(-34.000000) translate(-1469.638610, -78.460707) translate(1441.840162, 48.788206)">
                        <mask id="mask-4" sketch:name="Clip 2" fill="white">
                            <use xlink:href="#path-3"></use>
                        </mask>
                        <g id="Clip-2"></g>
                        <path d="M29.5079816,57.949279 C21.7686085,47.5845182 32.6043011,30.5117197 32.6043011,30.5117197 C35.0477134,37.5338844 40.7642149,36.0946119 40.7642149,36.0946119 C35.9771795,28.4170642 46.2326686,14.1442789 46.2326686,14.1442789 C46.6189958,16.0761595 50.1101957,18.7733675 50.1101957,18.7733675 C47.4301402,12.280935 55.0825541,0.0628253856 55.0825541,0.0628253856 C55.0825541,0.0628253856 43.6752114,8.85980723 36.963668,6.81227079 C36.963668,6.81227079 39.9815816,10.0349275 41.9388775,10.2348265 C41.9388775,10.2348265 28.7339018,21.8246823 20.642415,17.7838677 C20.642415,17.7838677 19.7585669,23.6194893 26.9719078,25.3843115 C26.9719078,25.3843115 11.0426841,37.8208822 0.000285112291,31.0942823 C0.000285112291,31.0942823 2.5933814,38.012214 12.1760055,44.5303478 L1.06232839,56.7798701 L3.87923783,59.345716 L14.9644037,47.130462 C22.2989174,55.8546235 29.5079816,57.949279 29.5079816,57.949279" id="Fill-1" fill="#66998C" sketch:type="MSShapeGroup" mask="url(#mask-4)"></path>
                    </g>
                    <g id="Page-1-Copy-5" transform="translate(1542.720194, 80.622115) rotate(-30.000000) translate(-1542.720194, -80.622115) translate(1508.585258, 44.185947)">
                        <mask id="mask-6" sketch:name="Clip 2" fill="white">
                            <use xlink:href="#path-5"></use>
                        </mask>
                        <g id="Clip-2"></g>
                        <path d="M36.2341475,71.1584664 C26.7306311,58.4311212 40.0362542,37.4666815 40.0362542,37.4666815 C43.0366276,46.0895062 50.0561709,44.3221602 50.0561709,44.3221602 C44.1779598,34.894562 56.7711256,17.3683816 56.7711256,17.3683816 C57.2455137,19.7406227 61.5325116,23.052643 61.5325116,23.052643 C58.2415536,15.0802999 67.6382889,0.0771460521 67.6382889,0.0771460521 C67.6382889,0.0771460521 53.6307114,10.8793467 45.3893124,8.36508669 C45.3893124,8.36508669 49.0951412,12.3223285 51.4985908,12.5677932 C51.4985908,12.5677932 35.2836208,26.7994865 25.3477285,21.8375927 C25.3477285,21.8375927 24.2624126,29.0034089 33.1199909,31.1705117 C33.1199909,31.1705117 13.5597971,46.4419233 0.000350101912,38.1820358 C0.000350101912,38.1820358 3.18452699,46.6768681 14.9514522,54.680771 L1.30447972,69.7224979 L4.76348661,72.8732128 L18.3754489,57.8735656 C27.3818206,68.5863469 36.2341475,71.1584664 36.2341475,71.1584664" id="Fill-1" fill="#66998C" sketch:type="MSShapeGroup" mask="url(#mask-6)"></path>
                    </g>
                    <g id="Page-1-Copy-6" transform="translate(809.927697, 53.814119) rotate(-51.000000) translate(-809.927697, -53.814119) translate(775.792761, 17.377951)">
                        <mask id="mask-8" sketch:name="Clip 2" fill="white">
                            <use xlink:href="#path-7"></use>
                        </mask>
                        <g id="Clip-2"></g>
                        <path d="M36.2341475,71.1584664 C26.7306311,58.4311212 40.0362542,37.4666815 40.0362542,37.4666815 C43.0366276,46.0895062 50.0561709,44.3221602 50.0561709,44.3221602 C44.1779598,34.894562 56.7711256,17.3683816 56.7711256,17.3683816 C57.2455137,19.7406227 61.5325116,23.052643 61.5325116,23.052643 C58.2415536,15.0802999 67.6382889,0.0771460521 67.6382889,0.0771460521 C67.6382889,0.0771460521 53.6307114,10.8793467 45.3893124,8.36508669 C45.3893124,8.36508669 49.0951412,12.3223285 51.4985908,12.5677932 C51.4985908,12.5677932 35.2836208,26.7994865 25.3477285,21.8375927 C25.3477285,21.8375927 24.2624126,29.0034089 33.1199909,31.1705117 C33.1199909,31.1705117 13.5597971,46.4419233 0.000350101912,38.1820358 C0.000350101912,38.1820358 3.18452699,46.6768681 14.9514522,54.680771 L1.30447972,69.7224979 L4.76348661,72.8732128 L18.3754489,57.8735656 C27.3818206,68.5863469 36.2341475,71.1584664 36.2341475,71.1584664" id="Fill-1" fill="#66998C" sketch:type="MSShapeGroup" mask="url(#mask-8)"></path>
                    </g>
                    <g id="Page-1-Copy-7" transform="translate(847.581368, 71.324642) rotate(-51.000000) translate(-847.581368, -71.324642) translate(821.820559, 43.827149)">
                        <mask id="mask-10" sketch:name="Clip 2" fill="white">
                            <use xlink:href="#path-9"></use>
                        </mask>
                        <g id="Clip-2"></g>
                        <path d="M27.3450331,53.7015704 C20.1729596,44.0965513 30.2143909,28.2751967 30.2143909,28.2751967 C32.4787,34.7826335 37.7761793,33.4488604 37.7761793,33.4488604 C33.3400358,26.3340804 42.8437929,13.1074968 42.8437929,13.1074968 C43.2018021,14.8977696 46.4370955,17.3972711 46.4370955,17.3972711 C43.9534893,11.3807369 51.0449777,0.0582202562 51.0449777,0.0582202562 C51.0449777,0.0582202562 40.4737984,8.21037931 34.2542143,6.31292823 C34.2542143,6.31292823 37.0509134,9.29936274 38.8647386,9.48460901 C38.8647386,9.48460901 26.6276936,20.2249231 19.1293165,16.4803021 C19.1293165,16.4803021 18.3102549,21.8881699 24.9948546,23.5236299 C24.9948546,23.5236299 10.2332503,35.0485942 0.000264213429,28.8150572 C0.000264213429,28.8150572 2.40328535,35.2259014 11.2834987,41.2662529 L0.984459238,52.6178797 L3.59488792,54.9956479 L13.8675061,43.6757776 C20.6643965,51.7604541 27.3450331,53.7015704 27.3450331,53.7015704" id="Fill-1" fill="#66998C" sketch:type="MSShapeGroup" mask="url(#mask-10)"></path>
                    </g>
                    <g id="Page-1-Copy-8" transform="translate(705.581368, 91.324642) rotate(-51.000000) translate(-705.581368, -91.324642) translate(679.820559, 63.827149)">
                        <mask id="mask-12" sketch:name="Clip 2" fill="white">
                            <use xlink:href="#path-11"></use>
                        </mask>
                        <g id="Clip-2"></g>
                        <path d="M27.3450331,53.7015704 C20.1729596,44.0965513 30.2143909,28.2751967 30.2143909,28.2751967 C32.4787,34.7826335 37.7761793,33.4488604 37.7761793,33.4488604 C33.3400358,26.3340804 42.8437929,13.1074968 42.8437929,13.1074968 C43.2018021,14.8977696 46.4370955,17.3972711 46.4370955,17.3972711 C43.9534893,11.3807369 51.0449777,0.0582202562 51.0449777,0.0582202562 C51.0449777,0.0582202562 40.4737984,8.21037931 34.2542143,6.31292823 C34.2542143,6.31292823 37.0509134,9.29936274 38.8647386,9.48460901 C38.8647386,9.48460901 26.6276936,20.2249231 19.1293165,16.4803021 C19.1293165,16.4803021 18.3102549,21.8881699 24.9948546,23.5236299 C24.9948546,23.5236299 10.2332503,35.0485942 0.000264213429,28.8150572 C0.000264213429,28.8150572 2.40328535,35.2259014 11.2834987,41.2662529 L0.984459238,52.6178797 L3.59488792,54.9956479 L13.8675061,43.6757776 C20.6643965,51.7604541 27.3450331,53.7015704 27.3450331,53.7015704" id="Fill-1" fill="#66998C" sketch:type="MSShapeGroup" mask="url(#mask-12)"></path>
                    </g>
                    <ellipse id="Oval-1" fill="#FAF9F2" sketch:type="MSShapeGroup" cx="1116.5" cy="600" rx="1116.5" ry="518"></ellipse>
                </g>
            </g>
        </g>
    </g>
</svg>